<svg width="51" height="50" viewBox="0 0 51 50" fill="none" xmlns="http://www.w3.org/2000/svg">
<path d="M44.25 18.75V22.9167H40.0833V6.25H35.9166V10.4167H31.75V6.25H27.5833V10.4167H23.4166V6.25H19.25V10.4167H15.0833V6.25H10.9166V22.9167H6.74998V18.75H2.58331V43.75H21.3333V37.5C21.3333 35.2083 23.2083 33.3333 25.5 33.3333C27.7916 33.3333 29.6666 35.2083 29.6666 37.5V43.75H48.4166V18.75H44.25ZM44.25 39.5833H33.8333V37.5C33.8333 32.8958 30.1041 29.1667 25.5 29.1667C20.8958 29.1667 17.1666 32.8958 17.1666 37.5V39.5833H6.74998V27.0833H15.0833V14.5833H35.9166V27.0833H44.25V39.5833Z" fill="#012F59"/>
<path d="M23.4166 18.75H19.25V25H23.4166V18.75Z" fill="#012F59"/>
<path d="M31.75 18.75H27.5833V25H31.75V18.75Z" fill="#012F59"/>
</svg>
