<svg width="51" height="50" viewBox="0 0 51 50" fill="none" xmlns="http://www.w3.org/2000/svg">
<path d="M23.4167 29.1667H19.25C19.25 18.8126 27.6458 10.4167 38 10.4167V14.5834C29.9375 14.5834 23.4167 21.1042 23.4167 29.1667ZM38 22.9167V18.7501C32.25 18.7501 27.5833 23.4167 27.5833 29.1667H31.75C31.75 25.7084 34.5417 22.9167 38 22.9167ZM15.0833 8.33341C15.0833 6.02091 13.2292 4.16675 10.9167 4.16675C8.60417 4.16675 6.75 6.02091 6.75 8.33341C6.75 10.6459 8.60417 12.5001 10.9167 12.5001C13.2292 12.5001 15.0833 10.6459 15.0833 8.33341ZM24.3542 9.37508H20.1875C19.6875 12.3334 17.1458 14.5834 14.0417 14.5834H7.79167C6.0625 14.5834 4.66667 15.9792 4.66667 17.7084V22.9167H17.1667V18.2084C21.0417 16.9792 23.9375 13.5626 24.3542 9.37508ZM40.0833 35.4167C42.3958 35.4167 44.25 33.5626 44.25 31.2501C44.25 28.9376 42.3958 27.0834 40.0833 27.0834C37.7708 27.0834 35.9167 28.9376 35.9167 31.2501C35.9167 33.5626 37.7708 35.4167 40.0833 35.4167ZM43.2083 37.5001H36.9583C33.8542 37.5001 31.3125 35.2501 30.8125 32.2917H26.6458C27.0625 36.4792 29.9583 39.8959 33.8333 41.1251V45.8334H46.3333V40.6251C46.3333 38.8959 44.9375 37.5001 43.2083 37.5001Z" fill="#012F59"/>
</svg>
