<svg width="51" height="50" viewBox="0 0 51 50" fill="none" xmlns="http://www.w3.org/2000/svg">
<path d="M33.3125 8.33341C33.3125 6.02091 35.1666 4.16675 37.4791 4.16675C39.7916 4.16675 41.6458 6.02091 41.6458 8.33341C41.6458 10.6459 39.7916 12.5001 37.4791 12.5001C35.1666 12.5001 33.3125 10.6459 33.3125 8.33341ZM41.6458 45.8334V33.3334H46.8541L41.5625 17.4376C40.9791 15.7292 39.3958 14.5834 37.6041 14.5834H37.3541C35.5625 14.5834 33.9583 15.7292 33.3958 17.4376L31.6041 22.8126C33.8541 24.0626 35.3958 26.4167 35.3958 29.1667V45.8334H41.6458ZM26.0208 23.9584C27.75 23.9584 29.1458 22.5626 29.1458 20.8334C29.1458 19.1042 27.75 17.7084 26.0208 17.7084C24.2916 17.7084 22.8958 19.1042 22.8958 20.8334C22.8958 22.5626 24.2916 23.9584 26.0208 23.9584ZM11.4375 12.5001C13.75 12.5001 15.6041 10.6459 15.6041 8.33341C15.6041 6.02091 13.75 4.16675 11.4375 4.16675C9.12498 4.16675 7.27081 6.02091 7.27081 8.33341C7.27081 10.6459 9.12498 12.5001 11.4375 12.5001ZM15.6041 45.8334V31.2501H18.7291V18.7501C18.7291 16.4584 16.8541 14.5834 14.5625 14.5834H8.31248C6.02081 14.5834 4.14581 16.4584 4.14581 18.7501V31.2501H7.27081V45.8334H15.6041ZM29.1458 45.8334V37.5001H31.2291V29.1667C31.2291 27.4584 29.8125 26.0417 28.1041 26.0417H23.9375C22.2291 26.0417 20.8125 27.4584 20.8125 29.1667V37.5001H22.8958V45.8334H29.1458Z" fill="#012F59"/>
</svg>
