<svg width="24" height="24" viewBox="0 0 24 24" fill="none" xmlns="http://www.w3.org/2000/svg">
<rect x="1" y="1" width="22" height="22" rx="3" stroke="#030712" stroke-width="2"/>
<path d="M18.7926 4C18.1008 4 17.5473 4.55948 17.5473 5.2453C17.5473 5.93112 18.1068 6.4906 18.7926 6.4906C19.4784 6.4906 20.0379 5.93112 20.0379 5.2453C20.0379 4.55948 19.4784 4 18.7926 4Z" fill="black"/>
<path d="M12.2399 7C9.35223 7 7 9.35223 7 12.2399C7 15.1275 9.35223 17.4798 12.2399 17.4798C15.1275 17.4798 17.4798 15.1275 17.4798 12.2399C17.4798 9.35223 15.1335 7 12.2399 7ZM12.2399 15.5968C10.387 15.5968 8.88299 14.0928 8.88299 12.2399C8.88299 10.387 10.387 8.88299 12.2399 8.88299C14.0928 8.88299 15.5968 10.387 15.5968 12.2399C15.5968 14.0928 14.0928 15.5968 12.2399 15.5968Z" fill="black"/>
</svg>
