<svg width="51" height="50" viewBox="0 0 51 50" fill="none" xmlns="http://www.w3.org/2000/svg">
<path d="M25.5 6.25L25.5208 28.2292C24.2917 27.5208 22.875 27.0833 21.3542 27.0833C16.7292 27.0833 13 30.8125 13 35.4167C13 40.0208 16.7292 43.75 21.3542 43.75C25.9792 43.75 29.6667 40.0208 29.6667 35.4167V14.5833H38V6.25H25.5ZM21.3542 39.5833C19.0625 39.5833 17.1875 37.7083 17.1875 35.4167C17.1875 33.125 19.0625 31.25 21.3542 31.25C23.6458 31.25 25.5208 33.125 25.5208 35.4167C25.5208 37.7083 23.6458 39.5833 21.3542 39.5833Z" fill="#012F59"/>
</svg>
