<svg width="51" height="50" viewBox="0 0 51 50" fill="none" xmlns="http://www.w3.org/2000/svg">
<path d="M21.3333 22.9167C25.9375 22.9167 29.6667 19.1875 29.6667 14.5833C29.6667 9.97917 25.9375 6.25 21.3333 6.25C16.7292 6.25 13 9.97917 13 14.5833C13 19.1875 16.7292 22.9167 21.3333 22.9167ZM21.3333 10.4167C23.625 10.4167 25.5 12.2917 25.5 14.5833C25.5 16.875 23.625 18.75 21.3333 18.75C19.0417 18.75 17.1667 16.875 17.1667 14.5833C17.1667 12.2917 19.0417 10.4167 21.3333 10.4167Z" fill="#012F59"/>
<path d="M8.83332 35.4167C9.29166 33.9167 15.7292 31.25 21.3333 31.25C21.3333 29.7917 21.6042 28.3958 22.0625 27.1042C16.375 26.8958 4.66666 29.7292 4.66666 35.4167V39.5833H24.5417C23.4583 38.375 22.6042 36.9792 22.0625 35.4167H8.83332Z" fill="#012F59"/>
<path d="M40.9792 35.4583C41.7292 34.2292 42.1667 32.7917 42.1667 31.25C42.1667 26.6458 38.4375 22.9167 33.8333 22.9167C29.2292 22.9167 25.5 26.6458 25.5 31.25C25.5 35.8542 29.2292 39.5833 33.8333 39.5833C35.375 39.5833 36.8125 39.125 38.0417 38.3958C39.9792 40.3333 41.4167 41.7708 43.3958 43.75L46.3333 40.8125C43.2083 37.6875 44.6875 39.1458 40.9792 35.4583ZM33.8333 35.4167C31.5417 35.4167 29.6667 33.5417 29.6667 31.25C29.6667 28.9583 31.5417 27.0833 33.8333 27.0833C36.125 27.0833 38 28.9583 38 31.25C38 33.5417 36.125 35.4167 33.8333 35.4167Z" fill="#012F59"/>
</svg>
