<svg width="50" height="50" viewBox="0 0 50 50" fill="none" xmlns="http://www.w3.org/2000/svg">
<path d="M9.95459 31.8087L15.2463 31.2045C16.5171 31.0587 17.7671 31.4962 18.6629 32.392L22.4963 36.2253C28.3921 33.2253 33.2254 28.4128 36.2254 22.4962L32.3713 18.642C31.4754 17.7462 31.0379 16.4962 31.1838 15.2253L31.7879 9.97534C32.0379 7.87118 33.8088 6.28784 35.9338 6.28784H39.5379C41.8921 6.28784 43.8504 8.24618 43.7046 10.6003C42.6004 28.392 28.3713 42.6003 10.6004 43.7045C8.24626 43.8503 6.28792 41.892 6.28792 39.5378V35.9337C6.26709 33.8295 7.85042 32.0587 9.95459 31.8087Z" fill="#012F59"/>
</svg>
