<svg width="19" height="24" viewBox="0 0 19 24" fill="none" xmlns="http://www.w3.org/2000/svg">
<path fill-rule="evenodd" clip-rule="evenodd" d="M7.75793 15.6554C7.73758 15.7232 7.71724 15.7842 7.70367 15.8385C6.82201 19.2905 6.72707 20.0569 5.81828 21.6642C5.38423 22.4238 4.90271 23.1495 4.36015 23.8412C4.29911 23.9226 4.24486 24.0176 4.12278 23.9972C3.98714 23.9701 3.98036 23.848 3.9668 23.7463C3.82437 22.6951 3.74299 21.6439 3.7769 20.5859C3.82437 19.2091 3.99392 18.7344 5.77081 11.2538C5.79793 11.1386 5.77081 11.0436 5.73011 10.9419C5.30285 9.79572 5.22146 8.62922 5.59447 7.44237C6.40153 4.89234 9.29066 4.69566 9.79931 6.79808C10.1113 8.10022 9.28388 9.8025 8.65315 12.3254C8.13094 14.4007 10.5725 15.8792 12.6681 14.3668C14.5942 12.9697 15.347 9.61261 15.2046 7.23891C14.9265 2.4983 9.73149 1.47422 6.43544 3.00017C2.65787 4.74992 1.79656 9.42949 3.50562 11.5726C3.72264 11.8439 3.88541 12.0134 3.81759 12.2847C3.70908 12.712 3.61413 13.146 3.49206 13.5733C3.40389 13.892 3.13939 14.0073 2.82064 13.8785C2.18991 13.6275 1.6677 13.2206 1.24044 12.6984C-0.210911 10.9012 -0.624612 7.3542 1.29469 4.34978C3.39711 1.01304 7.35101 -0.336573 10.9522 0.070346C15.2588 0.558649 17.9784 3.50203 18.487 6.83877C18.7176 8.35794 18.5549 12.1084 16.4185 14.7601C13.9635 17.8053 9.98242 18.0087 8.15128 16.1369C8.00886 15.9945 7.89357 15.8249 7.75793 15.6554Z" fill="black"/>
</svg>
