<svg width="50" height="50" viewBox="0 0 50 50" fill="none" xmlns="http://www.w3.org/2000/svg">
<path d="M32.9581 15.0417L30.8748 15.875C30.4373 15.5417 29.9789 15.2708 29.4789 15.0625L29.1665 12.8542C29.1248 12.6458 28.9581 12.5 28.7498 12.5H25.4164C25.2081 12.5 25.0415 12.6458 25.0206 12.8542L24.7081 15.0625C24.2081 15.2708 23.7289 15.5417 23.3123 15.875L21.2289 15.0417C21.0414 14.9792 20.8123 15.0417 20.7289 15.2292L19.0623 18.1042C18.9581 18.2917 18.9998 18.5208 19.1664 18.6458L20.9373 20.0208C20.8748 20.2708 20.8331 20.5625 20.8331 20.8333C20.8331 21.1042 20.8539 21.375 20.8956 21.6458L19.1456 23.0208C18.9789 23.1458 18.9373 23.375 19.0415 23.5417L20.7081 26.4375C20.8123 26.625 21.0206 26.6875 21.2289 26.625L23.2915 25.7917C23.729 26.125 24.1873 26.3958 24.7081 26.6042L24.9998 28.8125C25.0415 29.0208 25.2081 29.1667 25.4164 29.1667H28.7498C28.9581 29.1667 29.1248 29.0208 29.1665 28.8125L29.4789 26.6042C29.9789 26.3958 30.4581 26.125 30.8748 25.7917L32.9373 26.625C33.1248 26.7083 33.3539 26.625 33.4373 26.4375L35.104 23.5417C35.2081 23.3542 35.1664 23.1458 34.9998 23.0208L33.2706 21.6458C33.3123 21.375 33.3331 21.1042 33.3331 20.8333C33.3331 20.5417 33.3123 20.2708 33.2706 20.0208L35.0414 18.6458C35.2081 18.5208 35.2498 18.2917 35.1456 18.1042L33.4789 15.2292C33.3748 15.0417 33.1456 14.9792 32.9581 15.0417ZM27.0831 23.8125C25.4373 23.8125 24.1039 22.4792 24.1039 20.8333C24.1039 19.1875 25.4373 17.8542 27.0831 17.8542C28.729 17.8542 30.0623 19.1875 30.0623 20.8333C30.0623 22.4792 28.729 23.8125 27.0831 23.8125Z" fill="#012F59"/>
<path d="M41.5415 18.875C40.6456 12.0625 34.8123 6.66667 27.9373 6.27083C27.6456 6.25 27.3748 6.25 27.0831 6.25C19.729 6.25 13.6873 11.6875 12.6664 18.75L8.64562 26C7.79145 27.375 8.79145 29.1667 10.4165 29.1667H12.4998V33.3333C12.4998 35.625 14.3748 37.5 16.6664 37.5H18.7498V43.75H33.3331V34C38.7914 31.3958 42.3956 25.5 41.5415 18.875ZM31.0206 30.4792L29.1665 31.3542V39.5833H22.9164V33.3333H16.6664V25H13.9581L16.7289 20.1458C17.1039 14.7083 21.5623 10.4167 27.0831 10.4167C32.8331 10.4167 37.4998 15.0833 37.4998 20.8333C37.4998 25.1875 34.8123 28.9167 31.0206 30.4792Z" fill="#012F59"/>
</svg>
