<svg width="50" height="50" viewBox="0 0 50 50" fill="none" xmlns="http://www.w3.org/2000/svg">
<path d="M44.6003 23.776L26.2044 5.38021C25.4336 4.60937 24.3711 4.17188 23.2669 4.17188H8.32945C6.03778 4.17188 4.16278 6.04688 4.16278 8.33854V23.276C4.16278 24.3802 4.60028 25.4427 5.39195 26.2135L23.7878 44.6094C25.4128 46.2344 28.0586 46.2344 29.6836 44.6094L44.6211 29.6719C46.2461 28.0469 46.2461 25.4219 44.6003 23.776ZM13.5378 16.6719C11.8086 16.6719 10.4128 15.276 10.4128 13.5469C10.4128 11.8177 11.8086 10.4219 13.5378 10.4219C15.2669 10.4219 16.6628 11.8177 16.6628 13.5469C16.6628 15.276 15.2669 16.6719 13.5378 16.6719Z" fill="#012F59"/>
</svg>
