<svg width="21" height="24" viewBox="0 0 21 24" fill="none" xmlns="http://www.w3.org/2000/svg">
<path d="M20.541 9.71175C20.3481 9.73171 20.1486 9.73836 19.949 9.74501C17.7871 9.74501 15.7716 8.6541 14.5876 6.84479V16.7095C14.5876 20.7406 11.3215 24 7.29712 24C3.27273 24 0 20.7406 0 16.7095C0 12.6785 3.26608 9.41907 7.29047 9.41907C7.44346 9.41907 7.5898 9.43237 7.74279 9.43902V13.031C7.59645 13.0111 7.44346 12.9845 7.29047 12.9845C5.23503 12.9845 3.56541 14.6541 3.56541 16.7095C3.56541 18.765 5.23503 20.4346 7.29047 20.4346C9.3459 20.4346 11.1619 18.8115 11.1619 16.7561L11.1951 0H14.6341C14.9601 3.08647 17.4412 5.49446 20.5344 5.72062V9.71175" fill="black"/>
</svg>
