<svg width="51" height="50" viewBox="0 0 51 50" fill="none" xmlns="http://www.w3.org/2000/svg">
<path d="M37.875 29.2501C37.1667 29.9584 36.3958 30.5834 35.5833 31.1667L33.8333 28.1251V22.9167H35.9167V20.8334H24.2083L20.6042 14.5834H13L15.0833 16.1667L11.9583 19.7917L13.9375 21.8751L17.1667 19.8126V28.1251L15.4167 31.1667C14.6042 30.6042 13.8333 29.9584 13.125 29.2501L10.9167 31.4584C14.8125 35.3542 20 37.5001 25.5 37.5001C31 37.5001 36.1875 35.3542 40.0833 31.4584L37.875 29.2501ZM18.1042 32.7292L18.1667 32.6042L19.8542 29.6667C23.4792 31.0209 27.4792 31.0209 31.1042 29.6667L32.7917 32.6042L32.8542 32.7292C30.5625 33.7917 28.0625 34.3751 25.4583 34.3751C22.8542 34.3751 20.3958 33.8126 18.1042 32.7292ZM42.1667 8.33341V41.6667H8.83332V8.33341H42.1667ZM42.1667 4.16675H8.83332C6.54166 4.16675 4.66666 6.04175 4.66666 8.33341V41.6667C4.66666 43.9584 6.54166 45.8334 8.83332 45.8334H42.1667C44.4583 45.8334 46.3333 43.9584 46.3333 41.6667V8.33341C46.3333 6.04175 44.4583 4.16675 42.1667 4.16675Z" fill="#012F59"/>
</svg>
