<svg width="50" height="50" viewBox="0 0 50 50" fill="none" xmlns="http://www.w3.org/2000/svg">
<path d="M40.625 16.6667H35.4167V12.5C35.4167 10.2083 33.5417 8.33333 31.25 8.33333H6.25C3.95833 8.33333 2.08333 10.2083 2.08333 12.5V31.25C2.08333 33.5417 3.95833 35.4167 6.25 35.4167C6.25 38.875 9.04166 41.6667 12.5 41.6667C15.9583 41.6667 18.75 38.875 18.75 35.4167H31.25C31.25 38.875 34.0417 41.6667 37.5 41.6667C40.9583 41.6667 43.75 38.875 43.75 35.4167H45.8333C46.9792 35.4167 47.9167 34.4792 47.9167 33.3333V26.3958C47.9167 25.5 47.625 24.625 47.0833 23.8958L42.2917 17.5C41.8958 16.9792 41.2708 16.6667 40.625 16.6667ZM12.5 37.5C11.3542 37.5 10.4167 36.5625 10.4167 35.4167C10.4167 34.2708 11.3542 33.3333 12.5 33.3333C13.6458 33.3333 14.5833 34.2708 14.5833 35.4167C14.5833 36.5625 13.6458 37.5 12.5 37.5ZM40.625 19.7917L44.7083 25H35.4167V19.7917H40.625ZM37.5 37.5C36.3542 37.5 35.4167 36.5625 35.4167 35.4167C35.4167 34.2708 36.3542 33.3333 37.5 33.3333C38.6458 33.3333 39.5833 34.2708 39.5833 35.4167C39.5833 36.5625 38.6458 37.5 37.5 37.5Z" fill="#012F59"/>
</svg>
