<svg width="50" height="50" viewBox="0 0 50 50" fill="none" xmlns="http://www.w3.org/2000/svg">
<path d="M19.7917 33.3333V16.6667C19.7917 14.375 21.6458 12.5 23.9583 12.5H42.7083V10.4167C42.7083 8.125 40.8333 6.25 38.5417 6.25H9.375C7.0625 6.25 5.20833 8.125 5.20833 10.4167V39.5833C5.20833 41.875 7.0625 43.75 9.375 43.75H38.5417C40.8333 43.75 42.7083 41.875 42.7083 39.5833V37.5H23.9583C21.6458 37.5 19.7917 35.625 19.7917 33.3333ZM26.0417 16.6667C24.8958 16.6667 23.9583 17.6042 23.9583 18.75V31.25C23.9583 32.3958 24.8958 33.3333 26.0417 33.3333H44.7917V16.6667H26.0417ZM32.2917 28.125C30.5625 28.125 29.1667 26.7292 29.1667 25C29.1667 23.2708 30.5625 21.875 32.2917 21.875C34.0208 21.875 35.4167 23.2708 35.4167 25C35.4167 26.7292 34.0208 28.125 32.2917 28.125Z" fill="#012F59"/>
</svg>
