<?xml version="1.0" encoding="utf-8"?>
<!-- Generator: Adobe Illustrator 28.0.0, SVG Export Plug-In . SVG Version: 6.00 Build 0)  -->
<svg version="1.1" id="Layer_1" xmlns="http://www.w3.org/2000/svg" xmlns:xlink="http://www.w3.org/1999/xlink" x="0px" y="0px"
	 viewBox="0 0 3000 2000" style="enable-background:new 0 0 3000 2000;" xml:space="preserve">
<style type="text/css">
	.st0{fill:none;stroke:#000000;stroke-width:5;stroke-linecap:round;stroke-linejoin:round;stroke-miterlimit:10;}
	.st1{fill-rule:evenodd;clip-rule:evenodd;}
</style>
<path id="XMLID_38_" class="st0" d="M1270,1308.45c-10.9-74.69-12.71-144.77-51.29-180.04H1270"/>
<path id="XMLID_37_" class="st0" d="M1270,1308.45c-10.9-59.59-35.59-120.73-74.9-143.66h47.15"/>
<polyline id="XMLID_36_" class="st0" points="1270.77,1308.81 1270.75,1091 1421.66,1091 "/>
<path id="XMLID_57_" class="st1" d="M1651.14,1283.84c-3.41,0-6.72-0.47-9.89-1.42c-3.17-0.99-5.68-2.27-7.53-3.88l2.84-6.34
	c1.8,1.42,4.02,2.56,6.67,3.5c2.6,0.9,5.25,1.33,7.9,1.33c3.27,0,5.73-0.52,7.34-1.56c1.66-1.04,2.46-2.46,2.46-4.17
	c0-1.28-0.47-2.32-1.37-3.12c-0.9-0.8-2.04-1.47-3.46-1.94c-1.37-0.47-3.27-0.99-5.68-1.56c-3.36-0.8-6.06-1.61-8.14-2.41
	c-2.08-0.8-3.88-2.04-5.4-3.74c-1.47-1.7-2.22-4.02-2.22-6.91c0-2.46,0.66-4.69,1.99-6.67c1.33-1.99,3.31-3.6,6.01-4.78
	c2.65-1.18,5.92-1.75,9.8-1.75c2.7,0,5.35,0.33,7.95,0.99c2.6,0.71,4.88,1.66,6.77,2.93l-2.6,6.34c-1.94-1.14-3.93-1.99-6.06-2.56
	c-2.08-0.62-4.17-0.9-6.11-0.9c-3.27,0-5.68,0.57-7.24,1.66c-1.56,1.09-2.37,2.56-2.37,4.35c0,1.23,0.47,2.27,1.37,3.08
	c0.9,0.8,2.04,1.42,3.41,1.89c1.42,0.47,3.31,0.99,5.68,1.56c3.31,0.76,6.01,1.56,8.09,2.37c2.13,0.85,3.93,2.08,5.4,3.79
	c1.51,1.66,2.22,3.93,2.22,6.82c0,2.41-0.66,4.64-1.99,6.63c-1.33,1.99-3.31,3.55-6.01,4.73
	C1658.29,1283.27,1655.02,1283.84,1651.14,1283.84L1651.14,1283.84z M1708.37,1245.97h-14.63v-6.96h37.49v6.96h-14.63v37.25h-8.24
	V1245.97z M1780.32,1283.84c-4.5,0-8.57-0.95-12.17-2.93c-3.64-1.94-6.48-4.64-8.52-8.14c-2.08-3.46-3.12-7.34-3.12-11.64
	c0-4.31,1.04-8.19,3.12-11.64c2.04-3.46,4.88-6.2,8.52-8.14c3.6-1.94,7.67-2.93,12.17-2.93c4.5,0,8.57,0.99,12.16,2.93
	c3.64,1.94,6.48,4.69,8.57,8.09c2.04,3.46,3.08,7.38,3.08,11.69c0,4.35-1.04,8.24-3.08,11.69c-2.08,3.46-4.92,6.15-8.57,8.09
	C1788.89,1282.89,1784.82,1283.84,1780.32,1283.84L1780.32,1283.84z M1780.32,1276.65c2.93,0,5.59-0.66,7.95-1.99
	c2.37-1.33,4.21-3.17,5.54-5.54c1.37-2.37,2.04-5.06,2.04-8c0-2.93-0.66-5.59-2.04-8c-1.33-2.37-3.17-4.21-5.54-5.54
	c-2.37-1.33-5.02-1.99-7.95-1.99c-2.93,0-5.59,0.66-7.95,1.99s-4.21,3.17-5.54,5.54c-1.37,2.41-2.04,5.06-2.04,8
	c0,2.93,0.66,5.63,2.04,8c1.33,2.37,3.17,4.21,5.54,5.54C1774.73,1275.98,1777.38,1276.65,1780.32,1276.65L1780.32,1276.65z
	 M1864.62,1283.22l-8.99-12.92c-0.38,0-0.95,0.05-1.7,0.05h-9.99v12.88h-8.19v-44.21h18.18c3.83,0,7.15,0.66,9.99,1.89
	c2.84,1.28,5.02,3.08,6.53,5.44c1.51,2.37,2.27,5.16,2.27,8.38c0,3.36-0.8,6.2-2.41,8.61c-1.61,2.41-3.98,4.17-7.01,5.35
	l10.18,14.53H1864.62z M1864.43,1254.73c0-2.79-0.9-4.97-2.75-6.48c-1.85-1.51-4.59-2.27-8.14-2.27h-9.61v17.61h9.61
	c3.55,0,6.3-0.76,8.14-2.32C1863.53,1259.75,1864.43,1257.57,1864.43,1254.73L1864.43,1254.73z M1937.89,1276.36v6.86h-33.13v-44.21
	h32.28v6.91h-24.09v11.45h21.35v6.77h-21.35v12.21H1937.89z"/>
<path id="XMLID_48_" class="st1" d="M1362.03,1247.07c3.79,1.33,6.72,3.36,8.85,6.15c2.13,2.79,3.22,6.2,3.22,10.13
	c0,5.77-2.32,10.22-6.96,13.4c-4.64,3.12-11.36,4.69-20.16,4.69h-35.55v-65.94h33.65c8.43,0,14.82,1.56,19.22,4.64
	c4.4,3.12,6.58,7.34,6.58,12.59c0,3.17-0.76,5.96-2.27,8.43C1367.04,1243.66,1364.87,1245.6,1362.03,1247.07L1362.03,1247.07z
	 M1329.84,1228.99v12.69h12.83c6.25,0,9.42-2.13,9.42-6.39c0-4.21-3.17-6.3-9.42-6.3H1329.84z M1345.46,1267.99
	c6.53,0,9.8-2.22,9.8-6.72c0-4.45-3.27-6.67-9.8-6.67h-15.62v13.4H1345.46z M1416.89,1282.76c-6.96,0-13.21-1.47-18.79-4.4
	c-5.54-2.98-9.89-7.05-13.06-12.26c-3.17-5.21-4.78-11.08-4.78-17.61c0-6.53,1.61-12.4,4.78-17.66c3.17-5.21,7.53-9.28,13.06-12.21
	c5.59-2.98,11.83-4.45,18.79-4.45c6.96,0,13.21,1.47,18.79,4.45c5.54,2.93,9.89,7.01,13.06,12.21c3.17,5.25,4.78,11.12,4.78,17.66
	c0,6.53-1.61,12.4-4.78,17.61c-3.17,5.21-7.53,9.28-13.06,12.26C1430.09,1281.3,1423.85,1282.76,1416.89,1282.76L1416.89,1282.76z
	 M1416.89,1267.33c3.31,0,6.34-0.8,9.04-2.37c2.7-1.56,4.83-3.79,6.39-6.63c1.56-2.89,2.37-6.15,2.37-9.85
	c0-3.74-0.8-7.01-2.37-9.85c-1.56-2.89-3.69-5.11-6.39-6.67c-2.7-1.56-5.73-2.32-9.04-2.32c-3.31,0-6.34,0.76-9.04,2.32
	c-2.7,1.56-4.83,3.79-6.39,6.67c-1.56,2.84-2.37,6.11-2.37,9.85c0,3.69,0.8,6.96,2.37,9.85c1.56,2.84,3.69,5.06,6.39,6.63
	C1410.54,1266.53,1413.57,1267.33,1416.89,1267.33L1416.89,1267.33z M1496.41,1282.76c-7.01,0-13.25-1.47-18.79-4.4
	c-5.54-2.98-9.94-7.05-13.11-12.26c-3.17-5.21-4.73-11.08-4.73-17.61c0-6.53,1.56-12.4,4.73-17.66c3.17-5.21,7.57-9.28,13.11-12.21
	c5.54-2.98,11.79-4.45,18.79-4.45c6.96,0,13.21,1.47,18.74,4.45c5.59,2.93,9.94,7.01,13.11,12.21c3.17,5.25,4.73,11.12,4.73,17.66
	c0,6.53-1.56,12.4-4.73,17.61c-3.17,5.21-7.53,9.28-13.11,12.26C1509.62,1281.3,1503.37,1282.76,1496.41,1282.76L1496.41,1282.76z
	 M1496.41,1267.33c3.31,0,6.34-0.8,9.04-2.37c2.7-1.56,4.83-3.79,6.39-6.63c1.56-2.89,2.32-6.15,2.32-9.85
	c0-3.74-0.76-7.01-2.32-9.85c-1.56-2.89-3.69-5.11-6.39-6.67c-2.7-1.56-5.73-2.32-9.04-2.32c-3.36,0-6.34,0.76-9.04,2.32
	c-2.7,1.56-4.83,3.79-6.44,6.67c-1.56,2.84-2.32,6.11-2.32,9.85c0,3.69,0.76,6.96,2.32,9.85c1.61,2.84,3.74,5.06,6.44,6.63
	C1490.07,1266.53,1493.05,1267.33,1496.41,1267.33L1496.41,1267.33z M1568.07,1257.53l-6.96,7.43v16.47h-18.46v-65.94h18.46v27.41
	l25.51-27.41h20.5l-26.89,29.21l28.31,36.73h-21.63L1568.07,1257.53z"/>
<path id="XMLID_40_" class="st1" d="M1333.06,1187.57c-4.54,0-8.66-0.95-12.35-2.93c-3.69-1.94-6.58-4.64-8.66-8.14
	c-2.13-3.46-3.17-7.34-3.17-11.64c0-4.31,1.04-8.19,3.17-11.64c2.08-3.46,4.97-6.2,8.66-8.14c3.69-1.94,7.81-2.93,12.35-2.93
	c4.59,0,8.71,0.99,12.4,2.93s6.58,4.64,8.66,8.09c2.13,3.46,3.17,7.34,3.17,11.69c0,4.35-1.04,8.24-3.17,11.69
	c-2.08,3.46-4.97,6.15-8.66,8.09C1341.77,1186.63,1337.65,1187.57,1333.06,1187.57L1333.06,1187.57z M1333.06,1180.38
	c3.03,0,5.73-0.66,8.09-1.99c2.41-1.33,4.31-3.17,5.68-5.54s2.04-5.06,2.04-8c0-2.93-0.66-5.59-2.04-8
	c-1.37-2.37-3.27-4.21-5.68-5.54c-2.37-1.33-5.06-1.99-8.09-1.99c-2.98,0-5.68,0.66-8.05,1.99c-2.41,1.33-4.31,3.17-5.68,5.54
	c-1.37,2.41-2.04,5.06-2.04,8c0,2.93,0.66,5.63,2.04,8c1.37,2.37,3.27,4.21,5.68,5.54
	C1327.38,1179.72,1330.08,1180.38,1333.06,1180.38L1333.06,1180.38z M1415.8,1142.75v44.21h-6.91l-24.76-29.92v29.92h-8.28v-44.21
	h6.86l24.8,29.92v-29.92H1415.8z M1437.57,1142.75h8.33V1180h23.48v6.96h-31.81V1142.75z M1485.71,1142.75h8.38v44.21h-8.38V1142.75
	z M1555.86,1142.75v44.21H1549l-24.8-29.92v29.92h-8.28v-44.21h6.86l24.8,29.92v-29.92H1555.86z M1611.34,1180.09v6.86h-33.7v-44.21
	h32.8v6.91h-24.47v11.45h21.73v6.77h-21.73v12.21H1611.34z"/>
</svg>
