<svg width="225" height="45" viewBox="0 0 225 45" fill="none" xmlns="http://www.w3.org/2000/svg">
<path d="M19.5925 5.38435C22.9588 3.04488 27.0462 1.66977 31.4483 1.66977C35.8504 1.66977 39.9378 3.04265 43.3041 5.38435H46.0543C41.9871 1.8997 36.8639 0 31.4505 0C26.0372 0 20.914 1.8997 16.8445 5.38435H19.5947H19.5925Z" fill="#379044"/>
<path d="M31.4483 43.3293C21.7779 43.3293 13.6278 36.706 11.2928 27.7567L9.08276 24.9685C9.61852 29.8975 11.7481 34.476 15.2261 38.0901C19.4095 42.4386 25.2023 44.9433 31.2363 44.9991C37.2702 45.0549 43.0586 42.7087 47.3581 38.4093C51.1485 34.6188 53.4188 29.7144 53.8653 24.435L51.7691 27.0803C49.6752 36.369 41.3598 43.3271 31.4483 43.3271" fill="#379044"/>
<path d="M48.7978 8.17035H43.2438C43.0496 8.17035 42.8666 8.25964 42.746 8.41144L33.339 20.3923C33.1582 20.6222 33.1582 20.9437 33.339 21.1736L36.663 25.4061C36.9152 25.7297 37.4041 25.7297 37.6586 25.4061L48.8804 11.1148L49.9743 9.72181L50.3872 9.19498C50.7132 8.77977 50.4185 8.17035 49.8894 8.17035H48.7956H48.7978Z" fill="#379044"/>
<path d="M12.3464 14.2021L11.1722 12.722L8.93539 9.90039L7.75449 8.40921C7.63395 8.25741 7.4509 8.17035 7.25892 8.17035H0.633402C0.104343 8.17035 -0.190323 8.782 0.137828 9.19722L9.04477 20.4347L10.623 22.4259L21.8493 36.59C21.9699 36.7418 22.1529 36.8288 22.3449 36.8288L29.1646 36.8221C29.6959 36.8221 29.9906 36.2082 29.658 35.793L12.3464 14.2021Z" fill="#379044"/>
<path d="M55.0416 8.17035C54.8474 8.17035 54.6644 8.25964 54.5438 8.41144L51.5056 12.28L50.3493 13.7534L37.4532 30.1788C37.3818 30.268 37.2746 30.3216 37.1608 30.3216C37.0469 30.3216 36.9398 30.2703 36.8683 30.1788L36.3058 29.4622L35.4218 28.3349L31.263 23.0376L30.3768 21.9103L29.4905 20.7829L19.7777 8.41144C19.6572 8.25964 19.4741 8.17035 19.2799 8.17035H12.4289C11.8999 8.17035 11.6052 8.782 11.9334 9.19722L12.6589 10.1125L13.7661 11.5077L26.2157 27.2142L27.1042 28.3371L31.263 33.5853L32.1514 34.7059L33.0399 35.8265L33.6449 36.59C33.7654 36.7418 33.9485 36.8288 34.1404 36.8288H40.1811C40.3753 36.8288 40.5561 36.7395 40.6767 36.59L52.2691 21.9638L53.8116 20.0173L62.3882 9.19722C62.7163 8.782 62.4217 8.17035 61.8926 8.17035H55.0416Z" fill="#379044"/>
<path d="M71.7394 33.4848C71.7394 34.15 71.1724 34.717 70.5072 34.717H68.8754C68.2101 34.717 67.6431 34.15 67.6431 33.4848V12.6305C67.6431 11.9653 68.2101 11.3983 68.8754 11.3983H70.7751C71.3756 11.3983 72.0073 11.7309 72.3734 12.2309L79.7356 22.292L86.7651 12.2309C87.0978 11.7309 87.7317 11.3983 88.33 11.3983H89.9618C90.6271 11.3983 91.1941 11.9653 91.1941 12.6305V33.4848C91.1941 34.15 90.6271 34.717 89.9618 34.717H88.3635C87.6983 34.717 87.1313 34.15 87.1313 33.4848V17.8608L81.0348 26.4217C80.6017 27.0222 80.0347 27.3214 79.4699 27.3214C78.9052 27.3214 78.3047 27.0222 77.8716 26.4217L71.7417 17.9613V33.4848H71.7394Z" fill="#1A375E"/>
<path d="M111.481 33.4848C111.481 34.15 110.914 34.717 110.249 34.717H98.8889C98.2236 34.717 97.6566 34.15 97.6566 33.4848V12.6305C97.6566 11.9653 98.2236 11.3983 98.8889 11.3983H109.917C110.582 11.3983 111.149 11.9653 111.149 12.6305V13.9967C111.149 14.6619 110.582 15.2289 109.917 15.2289H101.755V21.0262H108.916C109.584 21.0262 110.149 21.5932 110.149 22.2585V23.6247C110.149 24.2899 109.582 24.8569 108.916 24.8569H101.755V30.8864H110.249C110.914 30.8864 111.481 31.4534 111.481 32.1186V33.4848Z" fill="#1A375E"/>
<path d="M123.672 11.3C133.001 11.3 136.765 16.6642 136.765 22.8254C136.765 29.3884 132.3 34.7839 123.406 34.7839C122.241 34.7839 120.207 34.7504 118.042 34.717C117.377 34.717 116.81 34.15 116.81 33.4847V12.6304C116.81 11.9652 117.343 11.3982 118.042 11.3982C119.875 11.3647 122.306 11.2977 123.672 11.2977V11.3ZM120.906 30.8885C122.038 30.9555 122.971 30.9555 123.538 30.9555C129.168 30.9555 132.432 27.7566 132.432 22.8276C132.432 17.8987 129.168 15.1328 123.603 15.1328C122.636 15.1328 121.837 15.1663 120.904 15.2333V30.8908L120.906 30.8885Z" fill="#1A375E"/>
<path d="M146.625 7.03404C146.625 8.63238 145.392 9.532 144.127 9.532C142.727 9.532 141.495 8.63238 141.495 7.03404C141.495 5.56741 142.727 4.66779 144.127 4.66779C145.392 4.66779 146.625 5.56741 146.625 7.03404ZM146.091 33.4848C146.091 34.15 145.524 34.717 144.859 34.717H143.227C142.562 34.717 141.995 34.15 141.995 33.4848V12.6305C141.995 11.9652 142.562 11.3982 143.227 11.3982H144.859C145.524 11.3982 146.091 11.9652 146.091 12.6305V33.4848Z" fill="#1A375E"/>
<path d="M163.247 14.8628C158.916 14.8628 155.652 17.9948 155.652 23.0577C155.652 28.1205 158.949 31.2525 163.713 31.2525C165.278 31.2525 166.577 30.8194 167.91 30.0872C168.175 29.9533 168.443 29.8863 168.675 29.8863C169.109 29.8863 169.508 30.0537 169.743 30.4533L170.343 31.3864C170.51 31.6186 170.575 31.8865 170.575 32.1521C170.575 32.5182 170.408 32.8843 170.109 33.0852C167.644 34.717 165.445 35.0831 163.347 35.0831C156.217 35.0831 151.321 30.3194 151.321 23.0577C151.321 16.3607 155.552 11.0322 163.247 11.0322C165.311 11.0322 167.611 11.7309 169.343 12.6975C169.743 12.8984 170.008 13.231 170.008 13.6641C170.008 13.865 169.941 14.0971 169.807 14.3293L169.109 15.5615C168.843 15.9946 168.508 16.1955 168.108 16.1955C167.876 16.1955 167.608 16.1285 167.376 15.9946C166.077 15.3294 164.778 14.8628 163.247 14.8628Z" fill="#1A375E"/>
<path d="M184.134 11.0322C191.063 11.0322 196.294 15.7959 196.294 23.0577C196.294 30.3194 191.063 35.0831 184.134 35.0831C177.205 35.0831 172.008 30.3194 172.008 23.0577C172.008 16.296 176.973 11.0322 184.134 11.0322ZM184.134 31.2525C189.032 31.2525 191.963 27.654 191.963 23.0577C191.963 18.2269 188.532 14.8628 184.134 14.8628C179.737 14.8628 176.339 18.2269 176.339 23.0577C176.339 27.8884 179.77 31.2525 184.134 31.2525Z" fill="#1A375E"/>
<path d="M205.12 33.4848C205.12 34.15 204.553 34.717 203.888 34.717H202.256C201.591 34.717 201.024 34.15 201.024 33.4848V12.6305C201.024 11.9653 201.591 11.3983 202.256 11.3983H204.156C204.756 11.3983 205.388 11.7309 205.754 12.2309L213.116 22.292L220.146 12.2309C220.479 11.7309 221.113 11.3983 221.711 11.3983H223.343C224.008 11.3983 224.575 11.9653 224.575 12.6305V33.4848C224.575 34.15 224.008 34.717 223.343 34.717H221.744C221.079 34.717 220.512 34.15 220.512 33.4848V17.8608L214.416 26.4217C213.983 27.0222 213.416 27.3214 212.851 27.3214C212.286 27.3214 211.686 27.0222 211.252 26.4217L205.123 17.9613V33.4848H205.12Z" fill="#1A375E"/>
</svg>
